<?xml version="1.0" encoding="UTF-8" standalone="no"?>
<!-- Created with Inkscape (http://www.inkscape.org/) -->

<svg
   width="24.908865mm"
   height="22.154293mm"
   viewBox="0 0 24.908865 22.154293"
   version="1.1"
   id="svg1"
   xml:space="preserve"
   xmlns="http://www.w3.org/2000/svg"
   xmlns:svg="http://www.w3.org/2000/svg"><defs
     id="defs1" /><g
     id="layer1"
     transform="translate(-62.80194,-111.44658)"><g
       id="layer1-0"
       transform="matrix(0.09212298,0,0,0.09212298,65.27581,109.67672)"><g
         id="layer1-8"
         transform="translate(293.85678,86.897275)"><path
           style="display:inline;fill:#29577e;fill-opacity:1"
           d="m -309.0543,124.11064 c -6.80871,-1.29574 -10.54221,-6.24691 -11.40559,-15.12551 -0.33728,-3.46841 -0.33341,-37.092773 0.005,-40.318303 0.8797,-8.39383 4.23607,-13.0394 10.64816,-14.73823 2.21984,-0.58812 7.64986,-0.58504 9.90847,0.006 5.2125,1.36318 8.39098,4.78554 9.86674,10.62379 0.64457,2.54999 1.04857,7.76182 1.0517,13.56766 l 0.002,4.299484 h -5.66317 -5.66316 l -0.12022,-7.077614 c -0.13301,-7.83022 -0.26728,-8.6059 -1.70879,-9.87156 -0.79265,-0.69596 -1.07318,-0.77781 -2.66272,-0.77693 -2.31631,0.001 -3.25726,0.55012 -3.92911,2.29172 -0.4666,1.20954 -0.49346,2.41699 -0.49346,22.181252 0,20.378611 0.0133,20.928161 0.52917,21.943341 0.80869,1.5913 1.67529,2.09344 3.63152,2.10425 2.21261,0.0122 3.25215,-0.55333 3.99251,-2.1721 0.5242,-1.14617 0.57342,-1.76295 0.66365,-8.31559 l 0.0975,-7.077611 h 5.66316 5.66317 l -0.006,4.564061 c -0.0115,8.75651 -0.68111,13.44419 -2.43386,17.03898 -1.55412,3.18741 -4.12485,5.37676 -7.59522,6.46844 -2.27767,0.71649 -7.28932,0.90856 -10.04136,0.38484 z m 29.86603,-35.070891 V 54.379327 h 11.77396 11.77396 v 5.55625 5.55625 h -6.22123 -6.22123 l 0.0697,8.92969 0.0697,8.929692 6.15156,0.071 6.15157,0.071 v 5.55138 5.55137 h -6.21771 -6.21771 v 8.863541 8.86354 h 6.21771 6.21771 v 5.68854 5.68854 h -11.77396 -11.77396 z m 33.60208,0 V 54.379327 l 5.6224,0.005 5.62239,0.005 6.48092,18.67696 c 3.5645,10.272332 6.62069,18.991322 6.79153,19.375532 0.24153,0.5432 0.3154,-3.61183 0.33211,-18.682162 l 0.0215,-19.38072 h 5.55625 5.55625 v 34.665672 34.665681 l -5.58888,-0.0714 -5.58887,-0.0714 -6.65268,-19.09866 c -3.65897,-10.504271 -6.73991,-19.185911 -6.84654,-19.292541 -0.10663,-0.10663 -0.19387,8.51754 -0.19387,19.164811 v 19.35869 h -5.55625 -5.55625 z m 55.29793,5.55625 V 65.491827 h -4.63022 -4.63021 v -5.55625 -5.55625 h 14.81668 14.81667 v 5.55625 5.55625 h -4.63021 -4.63021 v 29.104172 29.104161 h -5.55625 -5.55625 z m 30.42708,-5.55625 V 54.379327 l 8.40052,0.002 c 8.95292,0.002 10.57551,0.14473 14.04612,1.23445 5.08735,1.59734 7.76861,5.11287 8.82438,11.57009 0.1698,1.03852 0.31589,4.83427 0.32686,8.49242 0.0167,5.569734 -0.0581,6.948944 -0.47344,8.731252 -0.90645,3.8897 -2.89434,7.23997 -5.20195,8.76708 -1.20572,0.7979 -1.29088,1.03275 -0.45634,1.25839 0.95323,0.25774 3.04158,1.92478 3.90587,3.11791 0.43789,0.60449 1.05264,1.88311 1.36612,2.841391 0.52542,1.6062 0.58404,2.50712 0.75033,11.5319 0.14928,8.10201 0.25346,9.96061 0.60433,10.78176 l 0.42395,0.99219 h -5.64916 -5.64915 l -0.33151,-0.8599 c -0.23392,-0.60677 -0.37783,-3.85847 -0.4889,-11.04634 l -0.1574,-10.18646 -0.66146,-1.32254 c -1.08021,-2.159791 -3.04237,-3.043091 -6.7599,-3.043091 h -1.70677 V 110.471 123.70016 h -5.55625 -5.55625 z m 17.59479,-3.96875 c 0.97693,-0.48846 1.49592,-0.97285 1.98438,-1.85208 0.65411,-1.177398 0.66146,-1.261188 0.66146,-7.540632 0,-6.99835 -0.0582,-7.29249 -1.71851,-8.68957 -1.03534,-0.87118 -2.20993,-1.1955 -5.09451,-1.40666 l -2.31511,-0.16947 v 10.25087 10.250882 l 2.57969,-0.0909 c 2.10409,-0.0742 2.82358,-0.21289 3.9026,-0.7524 z m 24.62877,38.166131 c 0.0579,-0.25466 2.07356,-15.52441 4.47927,-33.932801 2.4057,-18.408392 4.44024,-33.797212 4.52119,-34.197402 l 0.14719,-0.7276 h 7.72253 7.722517 l 4.45391,34.065112 c 2.44965,18.735801 4.51436,34.332981 4.58826,34.660401 l 0.13436,0.59532 h -5.66577 -5.66576 l -0.62661,-6.34999 -0.6266,-6.35 h -4.307657 -4.30766 l -0.1403,0.85989 c -0.13717,0.84071 -1.20659,11.12055 -1.20659,11.59841 0,0.13833 -2.42207,0.24169 -5.66378,0.24169 -5.25778,0 -5.65622,-0.0332 -5.5585,-0.46303 z m 20.138767,-24.341651 c -0.0808,-0.54571 -0.83896,-7.708 -1.68471,-15.91622 -1.002717,-9.731602 -1.606077,-14.656552 -1.734177,-14.155212 -0.10805,0.42285 -0.85563,7.07913 -1.66129,14.791742 -0.80567,7.7126 -1.5357,14.52893 -1.62229,15.1474 l -0.15744,1.12448 h 3.50344 3.503437 z m 23.36267,-9.85573 V 54.379327 h 5.68854 5.68855 v 28.971882 28.971871 h 6.2177 6.21771 v 5.68854 5.68854 h -11.90625 -11.90625 z"
           id="path1" /><path
           style="-inkscape-font-specification:'Manjari Bold';display:inline;fill:#333652;stroke-width:0.277712"
           d="m -288.55379,157.62475 q 0,-0.44991 0.33209,-0.76813 0.34354,-0.32919 0.81304,-0.32919 h 0.0114 l 11.43986,-0.0659 h 0.0229 q 0.4695,0 0.80159,0.32919 0.34355,0.31822 0.34355,0.76813 0,0.4499 -0.34355,0.7791 -0.33209,0.31822 -0.80159,0.31822 h -0.0114 l -4.55762,0.0219 -0.0572,12.59724 v 0.011 q 0,0.43893 -0.34354,0.75715 -0.33209,0.31823 -0.80159,0.31823 -0.4695,0 -0.81304,-0.31823 -0.3321,-0.31822 -0.3321,-0.75715 v -0.0219 l 0.0573,-12.57531 -4.60342,0.0329 h -0.0114 q -0.46951,0 -0.81304,-0.31822 -0.33209,-0.3292 -0.33209,-0.7791 z m 22.6278,-1.31679 q 1.75204,0 3.21781,0.65839 1.47722,0.64742 2.56509,1.78864 1.08788,1.13024 1.68335,2.61162 0.59547,1.47041 0.59547,3.12737 0,1.65696 -0.59547,3.11639 -0.58402,1.44847 -1.66045,2.55676 -1.07642,1.10829 -2.55363,1.73377 -1.46578,0.62547 -3.24072,0.62547 -1.80932,0 -3.28653,-0.62547 -1.47723,-0.63644 -2.5422,-1.74474 -1.05351,-1.11927 -1.62608,-2.57871 -0.57257,-1.47041 -0.57257,-3.14931 0,-1.63501 0.59547,-3.09445 0.60692,-1.45943 1.68335,-2.58967 1.08787,-1.14122 2.54219,-1.78864 1.46576,-0.64742 3.19492,-0.64742 z m 0.0458,2.22756 q -1.6948,0 -3.00025,0.84494 -1.294,0.84494 -2.03834,2.23853 -0.73288,1.38263 -0.73288,3.02862 0,1.11927 0.4466,2.13977 0.44661,1.02051 1.23675,1.82155 0.79014,0.79007 1.82075,1.25095 1.04208,0.44991 2.22156,0.44991 1.17948,0 2.22155,-0.47186 1.05353,-0.47185 1.85512,-1.27289 0.81304,-0.80104 1.27108,-1.79961 0.45806,-1.00953 0.45806,-2.06296 0,-1.70085 -0.77869,-3.09445 -0.76724,-1.40457 -2.07269,-2.23853 -1.30544,-0.83397 -2.90862,-0.83397 z m 9.43587,-0.96564 q 0,-0.41698 0.32065,-0.74618 0.33208,-0.32919 0.76723,-0.32919 0.53821,0 0.85885,0.2853 0.33209,0.27433 0.34354,0.79007 l 0.0802,7.93363 q 0.0229,2.37022 0.99626,3.74188 0.97336,1.37164 3.22927,1.37164 1.67189,0 2.6796,-0.62547 1.00772,-0.62548 1.45433,-1.74474 0.4466,-1.11927 0.4466,-2.57871 l -0.0229,-8.1092 v -0.011 q 0,-0.4499 0.33208,-0.75715 0.33209,-0.31822 0.8016,-0.31822 0.4695,0 0.81304,0.31822 0.34354,0.30725 0.34354,0.75715 v 0.011 l 0.0229,8.1092 q 0,3.29196 -1.70625,5.21228 -1.69479,1.92032 -5.11873,1.92032 -2.21011,0 -3.65297,-0.93273 -1.44286,-0.9437 -2.16431,-2.5787 -0.72143,-1.64599 -0.74433,-3.75285 l -0.0802,-7.95558 z m 27.48316,13.87015 q 0,0.42795 -0.33209,0.74617 -0.32064,0.30725 -0.69853,0.30725 -0.32064,0 -0.56111,-0.21946 -0.24048,-0.20849 -0.3321,-0.31822 -1.04206,-0.70228 -1.8093,-1.59112 -0.75578,-0.8998 -1.294,-1.95323 -0.4695,-0.9437 -0.96191,-1.47041 -0.48095,-0.52672 -1.16804,-0.74618 -0.68707,-0.21947 -1.78639,-0.23044 l -1.04208,-0.011 0.0114,5.31104 v 0.0219 q 0,0.43893 -0.34354,0.76812 -0.33208,0.32921 -0.80159,0.32921 -0.4695,0 -0.81304,-0.35115 -0.33209,-0.35115 -0.33209,-0.83396 l -0.0343,-13.61777 q 0,-0.46087 0.33209,-0.76812 0.34354,-0.31822 0.80159,-0.3292 l 3.04605,-0.011 h 0.26338 q 1.96963,0 3.51555,0.55963 1.54594,0.54866 2.43913,1.65696 0.89321,1.09732 0.89321,2.73233 0,1.05343 -0.45806,1.87642 -0.4466,0.82299 -1.17948,1.39359 -0.73289,0.57061 -1.58028,0.88884 0.38934,0.47185 0.77869,1.16316 0.66418,1.21803 1.294,2.16173 0.62981,0.93271 1.66044,1.64597 0.20612,0.13168 0.34353,0.37309 0.14888,0.23044 0.14888,0.51575 z m -7.79834,-12.77283 h -2.21011 l 0.0229,5.24519 2.21011,-0.0219 q 2.10704,-0.0219 3.29798,-0.61451 1.20238,-0.59255 1.20238,-1.89836 0,-1.33874 -1.27109,-2.01908 -1.2711,-0.69131 -3.25218,-0.69131 z m 16.2494,-2.38119 q 1.3169,0 2.48494,0.42796 1.17948,0.42795 2.06123,1.18511 0.88176,0.75715 1.33981,1.75571 0.10307,0.21947 0.10307,0.4499 0,0.4499 -0.34354,0.7791 -0.3321,0.31822 -0.8016,0.31822 -0.30919,0 -0.61837,-0.18654 -0.30918,-0.19752 -0.43515,-0.47185 -0.43515,-0.94369 -1.45431,-1.50333 -1.00772,-0.55964 -2.33608,-0.55964 -0.65272,0 -1.3856,0.15363 -0.72143,0.15363 -1.36271,0.47185 -0.64127,0.30725 -1.04207,0.7791 -0.40079,0.47185 -0.40079,1.09732 0,0.50477 0.34353,0.87786 0.34354,0.36212 0.76724,0.5706 0.99627,0.47185 2.19866,0.6584 1.21384,0.18654 2.45058,0.36212 1.23674,0.17556 2.30171,0.61449 0.67562,0.27433 1.294,0.75715 0.61837,0.48283 1.00771,1.17414 0.38934,0.69131 0.38934,1.62404 0,1.20705 -0.60691,2.11782 -0.60692,0.91078 -1.59173,1.51432 -0.98482,0.60352 -2.1414,0.91077 -1.14513,0.29627 -2.24445,0.29627 -1.48868,0 -2.79413,-0.44989 -1.30544,-0.46088 -2.27881,-1.29485 -0.97337,-0.84493 -1.48867,-1.97518 -0.10306,-0.21946 -0.10306,-0.43893 0,-0.4499 0.33208,-0.76812 0.34354,-0.3292 0.81305,-0.3292 0.32063,0 0.62983,0.19752 0.30918,0.18655 0.42369,0.47185 0.50385,1.10829 1.70624,1.75572 1.20239,0.63644 2.75978,0.63644 0.97335,0 1.95817,-0.27433 0.98481,-0.2853 1.64899,-0.86688 0.67562,-0.59255 0.67562,-1.50333 0,-0.58159 -0.41224,-0.95468 -0.4008,-0.38406 -0.88176,-0.58157 -1.08787,-0.44991 -2.32461,-0.61451 -1.23674,-0.17556 -2.46203,-0.36211 -1.22529,-0.19752 -2.29026,-0.71326 -0.90466,-0.43893 -1.64899,-1.27289 -0.73288,-0.84494 -0.73288,-2.13978 0,-1.14121 0.57255,-2.0081 0.58403,-0.87786 1.53448,-1.47041 0.96191,-0.60352 2.10704,-0.91078 1.14513,-0.30725 2.27881,-0.30725 z m 16.16925,15.94409 q -0.4695,0 -0.81304,-0.31822 -0.33209,-0.3292 -0.33209,-0.7791 l -0.0343,-13.61777 q -0.0114,-0.0988 -0.0114,-0.19752 0,-0.15362 0.0687,-0.29627 0.0802,-0.14265 0.18323,-0.29628 0.27483,-0.42796 0.79014,-0.42796 0.8245,0 1.13368,0.61451 l 6.12645,9.57962 5.6684,-9.59059 q 0.34354,-0.54867 0.92755,-0.54867 0.49242,0 0.85886,0.30725 0.36644,0.30725 0.36644,0.79007 v 13.7275 q 0,0.44991 -0.34354,0.7791 -0.33209,0.31822 -0.8016,0.31822 -0.4695,0 -0.81304,-0.31822 -0.33209,-0.32919 -0.33209,-0.7791 v -9.81006 l -4.50036,7.83488 q -0.12597,0.19751 -0.38935,0.38406 -0.26338,0.17557 -0.57256,0.17557 -0.66418,0 -1.01917,-0.52671 l -5.05002,-7.91169 0.0343,9.79908 v 0.011 q 0,0.4499 -0.34354,0.7791 -0.33209,0.31822 -0.80159,0.31822 z m 22.75378,-15.30765 q 0.12596,-0.27432 0.42369,-0.46086 0.30919,-0.19753 0.62982,-0.19753 0.30918,0 0.61837,0.19753 0.32064,0.18654 0.43515,0.46086 l 6.29823,14.00183 q 0.10306,0.21947 0.10306,0.4499 0,0.44991 -0.34355,0.7791 -0.33208,0.31822 -0.80159,0.31822 -0.32063,0 -0.62982,-0.19751 -0.30918,-0.19752 -0.43514,-0.47185 l -1.95817,-4.35637 -6.52725,-0.0878 -2.00398,4.45513 q -0.11452,0.27432 -0.4237,0.47185 -0.30918,0.20848 -0.62982,0.20848 -0.4695,0 -0.81304,-0.31822 -0.3321,-0.32919 -0.3321,-0.7791 0,-0.23043 0.10307,-0.4499 z m 1.05352,3.21516 -2.2559,5.03671 4.54616,0.0548 z m 21.83765,12.20222 -12.29872,0.0768 q -0.45804,0 -0.80159,-0.30726 -0.34354,-0.31822 -0.34354,-0.7791 0,-0.43893 0.26339,-0.72423 l 11.11922,-11.90594 -10.31762,0.011 h -0.0114 q -0.49242,0 -0.8245,-0.32919 -0.32064,-0.3292 -0.32064,-0.7791 0,-0.4499 0.355,-0.7791 0.35499,-0.34017 0.70998,-0.34017 l 12.89417,0.0219 q 0.45805,0 0.80159,0.31822 0.34354,0.31822 0.34354,0.76813 0,0.43893 -0.26338,0.72423 l -11.11923,11.90594 9.90539,-0.011 h 0.0114 q 0.50385,0 0.8245,0.34017 0.32063,0.34017 0.32063,0.81202 0,0.39504 -0.22903,0.61451 -0.22902,0.20848 -0.50385,0.2853 -0.27484,0.0878 -0.43515,0.0878 -0.0458,0 -0.0573,-0.011 z m 8.81752,-15.41738 q 0.12596,-0.27432 0.4237,-0.46086 0.30918,-0.19753 0.62982,-0.19753 0.30918,0 0.61837,0.19753 0.32064,0.18654 0.43514,0.46086 l 6.29823,14.00183 q 0.10307,0.21947 0.10307,0.4499 0,0.44991 -0.34354,0.7791 -0.3321,0.31822 -0.8016,0.31822 -0.32064,0 -0.62982,-0.19751 -0.30919,-0.19752 -0.43515,-0.47185 l -1.95818,-4.35637 -6.52725,-0.0878 -2.00398,4.45513 q -0.11451,0.27432 -0.42369,0.47185 -0.30919,0.20848 -0.62982,0.20848 -0.46951,0 -0.81305,-0.31822 -0.33209,-0.32919 -0.33209,-0.7791 0,-0.23043 0.10306,-0.4499 z m 1.05352,3.21516 -2.25591,5.03671 4.54617,0.0548 z m 8.3022,-2.51286 q 0,-0.44991 0.33209,-0.76813 0.34354,-0.32919 0.81304,-0.32919 h 0.0114 l 11.43986,-0.0659 h 0.0229 q 0.46951,0 0.80159,0.32919 0.34355,0.31822 0.34355,0.76813 0,0.4499 -0.34355,0.7791 -0.33208,0.31822 -0.80159,0.31822 h -0.0114 l -4.55762,0.0219 -0.0572,12.59724 v 0.011 q 0,0.43893 -0.34354,0.75715 -0.3321,0.31823 -0.80159,0.31823 -0.46951,0 -0.81304,-0.31823 -0.3321,-0.31822 -0.3321,-0.75715 v -0.0219 l 0.0572,-12.57531 -4.60343,0.0329 h -0.0114 q -0.4695,0 -0.81304,-0.31822 -0.33209,-0.3292 -0.33209,-0.7791 z m 16.30666,14.69314 q -0.46951,0 -0.81305,-0.31823 -0.33208,-0.3292 -0.33208,-0.76812 l -0.0343,-13.92501 v -0.011 q 0,-0.43893 0.33209,-0.74618 0.34354,-0.31823 0.81304,-0.31823 0.46951,0 0.80159,0.31823 0.34354,0.30725 0.34354,0.74618 l 0.0343,12.82769 8.66864,-0.0219 h 0.0114 q 0.4695,0 0.80159,0.32919 0.34354,0.31822 0.34354,0.76813 0,0.4499 -0.34354,0.7791 -0.33209,0.31822 -0.80159,0.31822 h -0.0114 z m 23.26907,-22.34148 q 0.52676,0 0.83595,0.35115 0.309177,0.35114 0.309177,0.76813 0,0.42794 -0.320637,0.74617 l -3.71022,3.29196 q -0.45806,0.47185 -0.8703,0.47185 -0.28628,0 -0.53821,-0.2414 -0.25192,-0.24142 -0.25192,-0.50477 0,-0.38407 0.45804,-0.823 l 3.25217,-3.70894 q 0.33209,-0.35115 0.83595,-0.35115 z m -5.05003,6.94604 q 0.12596,-0.27432 0.42369,-0.46086 0.3092,-0.19753 0.62983,-0.19753 0.30919,0 0.61837,0.19753 0.32064,0.18654 0.43515,0.46086 l 6.298227,14.00183 q 0.10305,0.21947 0.10305,0.4499 0,0.44991 -0.34354,0.7791 -0.33208,0.31822 -0.80159,0.31822 -0.32063,0 -0.62982,-0.19751 -0.30918,-0.19752 -0.43515,-0.47185 l -1.958167,-4.35637 -6.52725,-0.0878 -2.00398,4.45513 q -0.11451,0.27432 -0.4237,0.47185 -0.30918,0.20848 -0.62983,0.20848 -0.46949,0 -0.81304,-0.31822 -0.33208,-0.32919 -0.33208,-0.7791 0,-0.23043 0.10306,-0.4499 z m 1.05352,3.21516 -2.25591,5.03671 4.54617,0.0548 z m 8.874767,-2.56773 q 0,-0.46088 0.34354,-0.75715 0.35499,-0.30725 0.83594,-0.30725 0.53822,0 0.88176,0.41697 l 8.64573,11.24755 v -10.5672 q 0,-0.43893 0.3321,-0.74618 0.34354,-0.31823 0.81304,-0.31823 0.4695,0 0.80159,0.31823 0.34354,0.30725 0.34354,0.74618 l -0.0114,13.76041 q 0,0.46088 -0.35499,0.76813 -0.34355,0.29628 -0.82449,0.29628 -0.53822,0 -0.88176,-0.43893 l -8.63429,-11.23657 v 10.60012 q 0,0.43893 -0.34354,0.75715 -0.33208,0.30726 -0.80159,0.30726 -0.46951,0 -0.81304,-0.30726 -0.33209,-0.31822 -0.33209,-0.75715 z"
           id="text5"
           aria-label="TOURS MAZATLÃN" /></g><g
         id="layer1-5"
         transform="matrix(0.53953361,0,0,0.53516488,185.3981,1.4591874)"><path
           style="color:#000000;font-style:normal;font-variant:normal;font-weight:normal;font-stretch:normal;font-size:medium;line-height:normal;font-family:sans-serif;font-variant-ligatures:normal;font-variant-position:normal;font-variant-caps:normal;font-variant-numeric:normal;font-variant-alternates:normal;font-variant-east-asian:normal;font-feature-settings:normal;font-variation-settings:normal;text-indent:0;text-align:start;text-decoration-line:none;text-decoration-style:solid;text-decoration-color:#000000;letter-spacing:normal;word-spacing:normal;text-transform:none;writing-mode:lr-tb;direction:ltr;text-orientation:mixed;dominant-baseline:auto;baseline-shift:baseline;text-anchor:start;white-space:normal;shape-padding:0;shape-margin:0;inline-size:0;clip-rule:nonzero;display:inline;overflow:visible;visibility:visible;isolation:auto;mix-blend-mode:normal;color-interpolation:sRGB;color-interpolation-filters:linearRGB;solid-color:#000000;solid-opacity:1;vector-effect:none;fill:#fad02c;fill-opacity:1;fill-rule:nonzero;stroke:none;stroke-width:0.994231;stroke-linecap:butt;stroke-linejoin:miter;stroke-miterlimit:4;stroke-dasharray:none;stroke-dashoffset:0;stroke-opacity:1;-inkscape-stroke:none;color-rendering:auto;image-rendering:auto;shape-rendering:auto;text-rendering:auto;enable-background:accumulate;stop-color:#000000;stop-opacity:1"
           d="m -125.03582,153.12996 0.0137,-0.17 0.54811,-1.13334 0.54811,-1.13333 -0.11128,0.90667 -0.11128,0.90666 -0.002,0.39667 -0.002,0.39667 h -0.44812 -0.44812 z m -26.56473,-3.45297 -4.70524,-1.08718 -2.80073,-0.71557 -2.80073,-0.71557 -5.09735,-1.38053 -5.09734,-1.38054 0.012,-0.13882 0.0119,-0.13882 7.21399,-4.67795 7.21399,-4.67794 9.29844,-6.06651 9.29845,-6.0665 8.81509,-5.7623 8.81509,-5.76231 0.0624,0.0734 0.0624,0.0734 -0.40462,5.86296 -0.40463,5.86295 -0.43237,0.48371 -0.43237,0.48371 -8.24277,9.63334 -8.24277,9.63333 -3.23493,3.79667 -3.23493,3.79666 -0.48383,-0.0212 -0.48383,-0.0212 z m 59.619306,-6.18037 -0.112678,-0.73666 -0.795946,-12.24 -0.795946,-12.24 0.002,-0.34347 0.002,-0.34346 1.146555,-0.41196 1.146565,-0.41197 0.165958,0.18876 0.165959,0.18876 4.644433,10.28562 4.644424,10.28563 -0.299465,0.26901 -0.299464,0.26902 -2.01653,1.21781 -2.016529,1.21781 -2.596233,1.77088 -2.596232,1.77089 h -0.13833 -0.13834 z m -152.648886,-9.26738 0.13336,-5.97595 0.36181,-3.17333 0.36181,-3.17334 0.54031,-3.23436 0.54031,-3.23435 0.88265,-3.67898 0.88265,-3.67897 0.82855,-2.60667 0.82855,-2.60667 1.00606,-2.77666 1.00607,-2.77667 h 57.5606 57.56059 v 0.209275 0.209276 l 0.53687,0.645465 0.53688,0.645465 0.19131,1.355259 0.19132,1.35526 -0.0665,0.79333 -0.0665,0.79334 -8.11162,2.41376 -8.11162,2.41376 -30.24795,8.99191 -30.24794,8.99192 -14.11571,4.20044 -14.1157,4.20045 -9.07439,2.70553 -9.07438,2.70552 -0.42535,0.13097 -0.42536,0.13097 z m 170.105825,-7.48017 -4.481184,-5.24143 -3.51918,-4.08883 -3.51918,-4.08883 1.342287,-1.45161 1.342287,-1.4516 0.570371,-0.87192 0.570372,-0.87192 2.950875,1.921 2.950874,1.92101 11.713606,7.63751 11.713609,7.63751 -0.622693,0.0664 -0.622691,0.0664 -2.576677,0.44912 -2.576676,0.44911 -2.800735,0.78215 -2.800742,0.78215 -2.340627,0.799 -2.340627,0.79901 -0.236043,-0.001 -0.236053,-0.001 z m 12.576886,-18.33237 -17.446993,-5.18798 -0.09885,-0.1 -0.09885,-0.1 0.349295,-1.86279 0.349304,-1.862782 v -1.1099 -1.109901 l 14.920986,0.05827 16.879803,-0.32261 0.768913,1.926666 0.768912,1.926667 0.878879,2.73103 0.87888,2.73102 0.810577,3.16231 1.517927,5.33877 0.11233,0.39666 0.11233,0.39667 -0.295172,-0.0143 -0.295173,-0.0143 z m -63.662301,-18.948246 -4.9293,-1.470292 -9.85859,-2.918954 -9.85859,-2.918954 -23.41414,-6.909476 -23.41416,-6.909476 -8.80176,-2.58578 -8.80178,-2.58578 2.19204,-2.14693 2.19204,-2.146931 2.03045,-1.705369 2.03047,-1.705369 1.77854,-1.366126 1.77853,-1.366126 3.02479,-2.044381 3.0248,-2.044381 2.80074,-1.653147 2.80073,-1.653147 3.13382,-1.540583 3.1338,-1.540584 0.59468,0.384978 0.59468,0.384977 31.00063,20.148576 31.00064,20.148577 0.33609,0.704757 0.33608,0.704757 0.84022,0.07035 0.84023,0.07035 3e-5,1.62965 5e-5,1.629651 -0.50217,1.416667 -0.50218,1.416666 -0.22605,-0.01394 -0.22607,-0.01394 z m 45.61459,0.66711 -0.232801,-0.868941 -0.908812,-1.794271 -0.908812,-1.79427 0.175675,-0.161047 0.175685,-0.161046 8.850331,-5.76521 8.850322,-5.765209 0.591288,-0.392387 0.591288,-0.392386 1.504632,2.073826 1.504633,2.073827 1.993154,3.072412 1.993154,3.072412 v 0.253635 0.253636 l -11.707077,3.486689 -11.707071,3.486689 -0.266399,0.09529 -0.2664,0.09529 z m -7.636618,-10.310019 -1.232327,-0.919615 -1.181409,-0.592736 -1.18141,-0.592736 0.100975,-0.233584 0.100975,-0.233584 5.01159,-11.106667 5.01159,-11.106666 h 0.24916 0.24916 l 2.337543,1.965747 2.337534,1.965748 2.27597,2.227586 2.27597,2.227585 -7.382149,8.609523 -7.382159,8.609523 -0.179343,0.04975 -0.179353,0.04975 z m -46.971912,-23.151348 -19.52032,-22.71424 0.70156,-0.156798 0.70157,-0.156797 5.08709,-0.236975 5.08708,-0.236975 4.09933,0.230153 4.09933,0.230153 2.8962,0.335758 2.89622,0.335759 0.0518,0.05453 0.0518,0.05453 9.43128,20.799211 9.43128,20.799211 v 0.100791 0.10079 l -1.5124,0.888112 -1.5124,0.888111 -1.23451,0.69946 -1.23451,0.699461 z m 31.50697,18.992426 -0.005,-0.226666 -2.55526,-17.904507 -2.55527,-17.904507 0.0567,-0.05742 0.0567,-0.05742 2.44736,0.993456 2.44737,0.993455 2.80074,1.296131 2.800732,1.29613 2.2966,1.260949 2.296609,1.260949 v 0.455198 0.455198 l -1.905946,13.729525 -1.905947,13.729525 -0.100797,0.453334 -0.100787,0.453333 h -3.034594 -3.03458 z"
           id="path3139-7" /><path
           style="fill:#29577e;fill-opacity:1"
           d="m -151.38204,238.56459 c -17.63701,-1.508 -32.84107,-6.59196 -47.57413,-15.90792 -1.5441,-0.97636 -3.06197,-1.9754 -3.37305,-2.2201 l -0.56559,-0.44489 1.33305,-0.59354 c 1.85496,-0.82593 6.09287,-2.19742 8.92638,-2.88879 6.61114,-1.61311 14.28078,-1.69457 20.96667,-0.22268 2.75779,0.60713 6.81905,1.8463 13.71333,4.18421 29.06164,9.85508 30.72043,10.38727 39.21333,12.58085 2.68033,0.69229 4.90305,1.2879 4.93937,1.32358 0.10579,0.10394 -4.82561,1.42726 -7.54604,2.02495 -3.29163,0.72318 -7.45233,1.41201 -11.22,1.85753 -3.59778,0.42544 -15.21085,0.61482 -18.81332,0.3068 z m 46.23999,-9.42493 c -7.90225,-2.15118 -16.55404,-4.93032 -40.46,-12.99663 -11.97656,-4.04111 -20.38041,-6.37236 -25.87658,-7.17822 -3.6404,-0.53376 -10.44608,-0.53402 -13.56341,-5e-4 -6.79578,1.16305 -12.73924,3.36974 -19.08407,7.08552 -1.14624,0.67128 -2.1887,1.22051 -2.31658,1.22051 -0.41408,0 -5.71961,-4.54198 -8.7217,-7.4665 -3.24145,-3.1577 -6.774,-7.10056 -9.57435,-10.68641 -1.93366,-2.47606 -5.97664,-8.31424 -5.97664,-8.63045 0,-0.45091 6.40595,-3.88478 10.25726,-5.49833 16.1242,-6.75544 32.167,-8.63485 50.4935,-5.91531 1.30675,0.19391 5.12991,0.90899 8.49591,1.58905 14.18151,2.86524 23.7691,3.93133 37.10268,4.12561 11.46064,0.167 18.95539,-0.27116 27.950654,-1.63404 18.9523,-2.87147 36.05303,-9.31068 48.87186,-18.40249 1.37086,-0.97229 2.68726,-1.90525 2.92533,-2.07326 0.42059,-0.29681 0.41979,-0.25827 -0.0283,1.36 -3.13882,11.3362 -8.92731,23.1044 -16.39264,33.32679 -1.13968,1.56058 -1.33608,1.72588 -2.21995,1.86838 -11.35371,1.83051 -19.32089,2.5586 -30.88966,2.82288 -7.262294,0.1659 -22.539134,-0.0357 -24.026664,-0.31702 -0.46837,-0.0886 -0.57418,-0.0635 -0.34,0.0807 0.56721,0.34929 6.95064,1.79517 10.08666,2.28468 13.149054,2.05249 25.398704,2.35113 37.617864,0.91708 1.98982,-0.23352 3.64663,-0.39581 3.6818,-0.36064 0.14145,0.14145 -4.29413,4.68415 -6.84632,7.01167 -5.27679,4.81225 -10.75055,8.92901 -16.43334,12.35933 -3.63102,2.19182 -10.910404,5.93951 -11.470034,5.90521 -0.23648,-0.0145 -1.70497,-0.37344 -3.2633,-0.79766 z m -127.00533,-40.9321 c -3.20277,-5.19976 -6.48316,-12.37531 -8.77435,-19.19313 -1.30167,-3.87333 -2.97509,-10.03637 -3.28344,-12.09256 l -0.15167,-1.01141 1.7774,-1.24376 c 12.95002,-9.06197 29.97885,-13.92153 45.26095,-12.91623 4.18163,0.27508 9.17487,1.02645 12.04978,1.81322 0.87267,0.23882 5.56467,1.52729 10.42667,2.86327 15.32354,4.21061 23.29141,6.13252 30.48666,7.35361 6.80986,1.1557 12.68718,1.78527 17.34,1.85746 l 2.49333,0.0387 0.16195,-2.01319 c 0.14551,-1.80875 1.80711,-26.15042 2.11019,-30.91319 0.0674,-1.05967 0.2718,-4.06867 0.45415,-6.68667 0.18235,-2.618 0.48434,-7.106 0.67108,-9.97333 0.18673,-2.86733 0.36283,-5.4767 0.39133,-5.79859 0.0348,-0.392903 -0.2135,-0.895213 -0.75539,-1.528293 -0.82254,-0.96095 -1.33331,-2.22362 -1.33331,-3.29608 0,-0.59187 0.0147,-0.59704 1.7,-0.59704 h 1.7 v -4.986662 -4.986667 h -0.748 c -0.4114,0 -0.8704,-0.1224 -1.02,-0.272 -0.39552,-0.395519 -0.33303,-1.191524 0.12467,-1.588098 0.43864,-0.380064 11.37972,-6.780779 12.32247,-7.208857 0.51108,-0.232065 0.7135,-0.193293 1.47334,0.282206 0.48447,0.303177 3.40535,2.008799 6.49085,3.790272 5.252764,3.032779 5.610004,3.280056 5.610004,3.883117 0,0.715146 -0.52163,1.11336 -1.45843,1.11336 h -0.58157 v 4.986667 4.986662 h 1.82361 1.8236 l -0.14635,0.85 c -0.18751,1.08903 -0.8862,2.49188 -1.63691,3.28667 -0.57877,0.61275 -0.58034,0.62333 -0.093,0.62333 0.27266,0 0.49808,0.0765 0.50093,0.17 0.003,0.0935 0.25339,3.740003 0.55675,8.103333 0.7343,10.56198 2.34128,34.10324 2.52206,36.94667 0.0793,1.24667 0.16786,2.29424 0.19688,2.32794 0.029,0.0337 2.06703,-1.26329 4.52891,-2.8822 11.57311,-7.61036 21.04713,-11.6416 31.84435,-13.54992 3.15115,-0.55694 4.07269,-0.62349 8.67126,-0.62616 3.92666,-0.002 5.21517,0.0669 5.44,0.29207 0.451,0.45171 0.361,11.3983 -0.13083,15.9116 -0.3479,3.19252 -1.35067,9.75849 -1.63316,10.69358 -0.2741,0.90736 -9.39618,6.32176 -15.05474,8.93574 -22.7446,10.50687 -52.792364,14.30703 -84.831424,10.72868 -7.35033,-0.82094 -9.41489,-1.12119 -17.16858,-2.49684 -10.26554,-1.82129 -16.89057,-2.36228 -24.61048,-2.00965 -7.3965,0.33785 -11.95503,0.97023 -18.11618,2.51318 -9.43441,2.36267 -19.94549,7.25085 -27.09984,12.60279 -2.04328,1.52851 -1.96699,1.49845 -2.3255,0.91641 z m 117.712,-98.323885 v -4.986667 h -1.58667 -1.58667 v 4.986667 4.986662 h 1.58667 1.58667 z m 5.21333,0 v -4.986667 h -1.7 -1.7 v 4.986667 4.986662 h 1.7 1.7 z m 4.98667,0 v -4.986667 h -1.58667 -1.58667 v 4.986667 4.986662 h 1.58667 1.58667 z m 5.213334,-0.0095 v -4.996201 l -1.756674,0.0662 -1.75666,0.0662 -0.0611,4.93 -0.0611,4.930003 h 1.81776 1.817754 z"
           id="path3125" /></g></g></g></svg>
