<?xml version="1.0" encoding="UTF-8" standalone="no"?>
<!-- Created with Inkscape (http://www.inkscape.org/) -->

<svg
   width="383.64191mm"
   height="117.22652mm"
   viewBox="0 0 383.6419 117.22652"
   version="1.1"
   id="svg1"
   xml:space="preserve"
   xmlns="http://www.w3.org/2000/svg"
   xmlns:svg="http://www.w3.org/2000/svg"><defs
     id="defs1" /><g
     id="layer1"
     transform="translate(-172.78624,222.61114)"><g
       id="layer1-8"
       transform="matrix(0.4904851,0,0,0.48651352,292.34893,-238.2208)"><path
         style="color:#000000;font-style:normal;font-variant:normal;font-weight:normal;font-stretch:normal;font-size:medium;line-height:normal;font-family:sans-serif;font-variant-ligatures:normal;font-variant-position:normal;font-variant-caps:normal;font-variant-numeric:normal;font-variant-alternates:normal;font-variant-east-asian:normal;font-feature-settings:normal;font-variation-settings:normal;text-indent:0;text-align:start;text-decoration-line:none;text-decoration-style:solid;text-decoration-color:#000000;letter-spacing:normal;word-spacing:normal;text-transform:none;writing-mode:lr-tb;direction:ltr;text-orientation:mixed;dominant-baseline:auto;baseline-shift:baseline;text-anchor:start;white-space:normal;shape-padding:0;shape-margin:0;inline-size:0;clip-rule:nonzero;display:inline;overflow:visible;visibility:visible;isolation:auto;mix-blend-mode:normal;color-interpolation:sRGB;color-interpolation-filters:linearRGB;solid-color:#000000;solid-opacity:1;vector-effect:none;fill:#fad02c;fill-opacity:1;fill-rule:nonzero;stroke:none;stroke-width:1.044;stroke-linecap:butt;stroke-linejoin:miter;stroke-miterlimit:4;stroke-dasharray:none;stroke-dashoffset:0;stroke-opacity:1;-inkscape-stroke:none;color-rendering:auto;image-rendering:auto;shape-rendering:auto;text-rendering:auto;enable-background:accumulate;stop-color:#000000;stop-opacity:1"
         d="m -118.05002,158.04015 0.0142,-0.1785 0.57552,-1.19005 0.57552,-1.18994 -0.11691,0.95199 -0.11682,0.95195 -0.002,0.41651 -0.002,0.41654 h -0.47051 -0.4706 z m -27.89299,-3.62562 -4.94054,-1.1416 -2.94076,-0.75131 -2.94083,-0.75139 -5.35214,-1.44951 -5.35222,-1.44965 0.0128,-0.14571 0.0127,-0.14572 7.57467,-4.91189 7.5747,-4.91182 9.76335,-6.36989 9.76337,-6.3698 9.25587,-6.0504 9.25579,-6.0504 0.0653,0.0771 0.0653,0.0767 -0.42483,6.15606 -0.42489,6.15617 -0.45394,0.50786 -0.45403,0.50797 -8.65492,10.11487 -8.65489,10.11505 -3.39665,3.98643 -3.39669,3.98664 -0.50799,-0.0225 -0.50802,-0.0225 z m 62.600198,-6.48941 -0.118309,-0.77348 -0.835746,-12.85198 -0.835745,-12.85201 0.0022,-0.36067 0.0022,-0.36066 1.203873,-0.43257 1.203899,-0.43253 0.174257,0.19816 0.174261,0.19824 4.876637,10.79985 4.876655,10.79992 -0.314444,0.28252 -0.314432,0.28243 -2.117358,1.2787 -2.117351,1.27872 -2.72605,1.85946 -2.726048,1.85944 h -0.145236 -0.145264 z m -160.281218,-9.7308 0.14001,-6.27466 0.37987,-3.33199 0.37992,-3.33205 0.56737,-3.3961 0.5673,-3.39608 0.9268,-3.86286 0.92673,-3.86291 0.87006,-2.73699 0.86993,-2.73703 1.05632,-2.91548 1.05641,-2.915521 h 60.43859 60.43865 v 0.21973 0.21976 l 0.56364,0.677761 0.56379,0.67772 0.20082,1.42302 0.20091,1.423 -0.0699,0.83301 -0.0699,0.83302 -8.51721,2.53439 -8.51722,2.5344 -31.76033,9.44149 -31.76026,9.44154 -14.82155,4.41054 -14.82141,4.4104 -9.52818,2.84081 -9.52805,2.84083 -0.44668,0.13753 -0.44657,0.13753 z m 178.610994,-7.85412 -4.70524,-5.50354 -3.695138,-4.29327 -3.695138,-4.29321 1.409402,-1.52429 1.409402,-1.5241 0.598889,-0.91555 0.59889,-0.91549 3.098414,2.01702 3.098418,2.01709 12.299284,8.0194 12.299284,8.01941 -0.653832,0.0696 -0.653809,0.0696 -2.705524,0.47155 -2.705503,0.47159 -2.940773,0.82125 -2.940777,0.82117 -2.457655,0.83897 -2.457657,0.83899 -0.247847,-8.9e-4 -0.247855,-9e-4 z m 13.205726,-19.24902 -18.319338,-5.44737 -0.103793,-0.105 -0.103794,-0.105 0.366756,-1.95589 0.366772,-1.95597 v -1.16532 -1.165421 l 15.667027,0.0608 17.723786,-0.33874 0.807356,2.023091 0.807355,2.02298 0.922826,2.86754 0.922824,2.86757 0.851101,3.32047 1.593825,5.60565 0.117951,0.41652 0.117944,0.41647 -0.309929,-0.0151 -0.309933,-0.0149 z m -66.84533,-19.895693 -5.17579,-1.54376 -10.3515,-3.06491 -10.35157,-3.064901 -24.58475,-7.2549 -24.58495,-7.25498 -9.2418,-2.715047 -9.24187,-2.715062 2.30163,-2.254283 2.30164,-2.254273 2.13194,-1.790639 2.13203,-1.790634 1.86744,-1.434436 1.8675,-1.434427 3.17603,-2.146596 3.17599,-2.146604 2.94084,-1.735803 2.94072,-1.735803 3.29052,-1.617612 3.29046,-1.617612 0.62445,0.404229 0.62442,0.404225 32.55061,21.155994 32.55073,21.155984 0.35286,0.73995 0.35288,0.74008 0.88223,0.0734 0.88231,0.0734 3e-5,1.71111 4e-5,1.71114 -0.52731,1.48746 -0.52733,1.4876 -0.23731,-0.0147 -0.23739,-0.0148 z m 47.895243,0.70054 -0.244443,-0.91237 -0.954254,-1.884 -0.954251,-1.88402 0.184459,-0.16905 0.184471,-0.16907 9.292843,-6.053491 9.292833,-6.0535 0.620856,-0.41202 0.620859,-0.41196 1.579853,2.1775 1.57986,2.17746 2.092812,3.2261 2.092816,3.226031 v 0.26632 0.26628 l -12.292429,3.66108 -12.292417,3.66097 -0.279718,0.10011 -0.27972,0.10022 z m -8.018447,-10.825521 -1.293942,-0.96558 -1.24048,-0.62236 -1.240481,-0.62241 0.106022,-0.24522 0.106022,-0.24527 5.262168,-11.662023 5.262164,-11.661994 h 0.261619 0.261622 l 2.454415,2.064034 2.454409,2.064036 2.389765,2.338963 2.389775,2.338961 -7.751257,9.040033 -7.751264,9.03994 -0.188309,0.0525 -0.18832,0.0523 z m -49.320466,-24.308902 -20.49632,-23.849945 0.73662,-0.164636 0.73669,-0.164633 5.34141,-0.248826 5.34146,-0.248824 4.30424,0.24166 4.3043,0.241665 3.04105,0.352539 3.041,0.35255 0.0551,0.05729 0.0541,0.05726 9.90273,21.839161 9.90287,21.839201 v 0.10587 0.10576 l -1.58799,0.93254 -1.58801,0.93248 -1.29629,0.73446 -1.29615,0.73438 z m 33.082328,19.942042 -0.0054,-0.23799 -2.682956,-18.799737 -2.683052,-18.799727 0.06,-0.06028 0.06,-0.06028 2.569672,1.043131 2.569771,1.043122 2.94076,1.360938 2.940792,1.360936 2.411415,1.323998 2.411437,1.323993 v 0.477958 0.477961 l -2.001246,14.41599 -2.001243,14.416047 -0.105826,0.476 -0.105816,0.47597 h -3.186296 -3.186303 z"
         id="path3139-7" /><path
         style="fill:#29577e;fill-opacity:1;stroke-width:1.05"
         d="m -145.71358,247.74643 c -18.51889,-1.58338 -34.4831,-6.92153 -49.95282,-16.70332 -1.62128,-1.02519 -3.2151,-2.07417 -3.5417,-2.3311 l -0.59383,-0.4671 1.39965,-0.62324 c 1.94769,-0.86724 6.39753,-2.30726 9.37264,-3.03325 6.94179,-1.69374 14.99484,-1.77929 22.0151,-0.2338 2.89563,0.63746 7.15996,1.93866 14.39891,4.39339 30.51474,10.3479 32.25651,10.90664 41.17403,13.20991 2.81429,0.72694 5.14815,1.3523 5.18631,1.38977 0.11107,0.10916 -5.06689,1.49863 -7.92332,2.1262 -3.45617,0.75934 -7.82495,1.48257 -11.78094,1.95037 -3.77776,0.44671 -15.97141,0.64559 -19.75403,0.32217 z m 48.551925,-9.89619 c -8.297335,-2.25876 -17.381695,-5.17685 -42.482935,-13.6464 -12.57531,-4.24322 -21.39945,-6.69097 -27.17033,-7.53718 -3.82246,-0.56043 -10.96845,-0.56071 -14.24164,-5.1e-4 -7.1356,1.22119 -13.3762,3.53823 -20.03825,7.4398 -1.20354,0.70486 -2.29816,1.28151 -2.43246,1.28151 -0.43474,0 -6.00551,-4.76909 -9.15779,-7.83983 -3.40347,-3.31552 -7.11266,-7.45558 -10.05296,-11.22075 -2.03035,-2.59986 -6.27557,-8.72991 -6.27557,-9.06192 0,-0.47346 6.72632,-4.07904 10.77013,-5.77325 16.93039,-7.09324 33.77536,-9.0666 53.01816,-6.21102 1.3721,0.20359 5.38642,0.95434 8.92074,1.66849 14.89049,3.00842 24.95754,4.12784 38.95779,4.33185 12.03362,0.17534 19.90306,-0.2847 29.34812,-1.71571 19.899909,-3.01503 37.855666,-9.77625 51.315432,-19.3226 1.439403,-1.02096 2.821621,-2.00047 3.071594,-2.17697 0.441621,-0.31166 0.440776,-0.27117 -0.02974,1.428 -3.295757,11.90309 -9.373671,24.25964 -17.21226,34.99314 -1.196668,1.63861 -1.40288,1.81214 -2.330949,1.96184 -11.92139,1.92202 -20.286916,2.6865 -32.434126,2.96401 -7.625394,0.17414 -23.666031,-0.0376 -25.227931,-0.33292 -0.4918,-0.0929 -0.60291,-0.0662 -0.357,0.0845 0.59555,0.36671 7.29816,1.88496 10.59092,2.39895 13.806513,2.15513 26.66864,2.46866 39.498754,0.96284 2.089312,-0.24514 3.828959,-0.41554 3.865888,-0.37864 0.14852,0.14854 -4.508833,4.9184 -7.188635,7.36228 -5.540622,5.05282 -11.28807,9.37543 -17.254996,12.97728 -3.812572,2.30141 -11.455937,6.23648 -12.043556,6.2005 -0.248218,-0.0151 -1.790163,-0.39212 -3.426401,-0.83761 z M -230.5172,194.87153 c -3.36286,-5.45973 -6.80721,-12.99407 -9.21304,-20.15268 -1.36669,-4.06707 -3.12383,-10.53821 -3.44757,-12.69728 l -0.15929,-1.06192 1.86634,-1.30593 c 13.5975,-9.51512 31.47775,-14.61761 47.52396,-13.56207 4.39065,0.28883 9.63354,1.07782 12.6523,1.90387 0.91623,0.2508 5.84282,1.60367 10.94792,3.00649 16.08978,4.42106 24.45599,6.43905 32.01095,7.72128 7.15035,1.21351 13.32152,1.8745 18.20699,1.95028 l 2.61803,0.0412 0.17003,-2.11394 c 0.15276,-1.89913 1.89749,-27.45792 2.21574,-32.4588 0.071,-1.11274 0.28532,-4.27216 0.47685,-7.02099 0.19142,-2.74888 0.50852,-7.46132 0.70462,-10.47199 0.19606,-3.01074 0.38095,-5.75055 0.41086,-6.08855 0.0365,-0.41256 -0.22411,-0.93988 -0.79311,-1.60473 -0.86362,-1.009031 -1.39999,-2.334813 -1.39999,-3.460893 0,-0.62141 0.0153,-0.62686 1.78501,-0.62686 h 1.785 v -5.23601 -5.23601 h -0.78544 c -0.43194,0 -0.9139,-0.12848 -1.071,-0.28553 -0.41529,-0.41537 -0.34964,-1.25116 0.13093,-1.66753 0.46061,-0.399051 11.94869,-7.119851 12.93854,-7.569381 0.53661,-0.24359 0.7492,-0.20288 1.546981,0.29637 0.508749,0.31831 3.575683,2.10921 6.81541,3.9798 5.515424,3.184401 5.890522,3.444021 5.890522,4.077271 0,0.75085 -0.547709,1.169 -1.531348,1.169 h -0.610651 v 5.23601 5.236 h 1.914794 1.914777 l -0.153673,0.89253 c -0.196881,1.14349 -0.9305,2.616453 -1.718751,3.451043 -0.607707,0.64334 -0.609353,0.65449 -0.09766,0.65449 0.286294,0 0.522985,0.0802 0.525975,0.17851 0.0035,0.0982 0.266063,3.92699 0.58459,8.5085 0.771011,11.09008 2.45834,35.80827 2.648164,38.79396 0.08326,1.30892 0.17625,2.40896 0.206721,2.44429 0.03043,0.0355 2.170382,-1.32641 4.755353,-3.02632 12.151764,-7.99079 22.099477,-12.22366 33.436548,-14.22735 3.308701,-0.58483 4.276327,-0.65468 9.104818,-0.65748 4.122996,-0.002 5.47593,0.0701 5.712002,0.30668 0.47355,0.47429 0.379051,11.96822 -0.137372,16.70718 -0.365294,3.35213 -1.418205,10.24636 -1.714816,11.22822 -0.287808,0.95277 -9.865984,6.63785 -15.807473,9.38257 -23.881814,11.03215 -55.431931,15.02236 -89.072911,11.26502 -7.71786,-0.86201 -9.88563,-1.17722 -18.02707,-2.62157 -10.77875,-1.91241 -17.73498,-2.4805 -25.84097,-2.11023 -7.76621,0.35481 -12.55273,1.01881 -19.02195,2.63885 -9.90616,2.48084 -20.94274,7.61341 -28.4548,13.23298 -2.14541,1.60483 -2.06531,1.5733 -2.44182,0.96221 z M -106.91962,91.631567 v -5.236 h -1.66598 -1.66603 v 5.236 5.23586 h 1.66603 1.66598 z m 5.47398,0 v -5.236 h -1.78497 -1.78498 v 5.236 5.23586 h 1.78498 1.78497 z m 5.236006,0 v -5.236 h -1.666021 -1.666043 v 5.236 5.23586 h 1.666043 1.666021 z m 5.473987,-0.0109 v -5.2461 l -1.844532,0.0692 -1.844445,0.0692 -0.06457,5.1765 -0.06457,5.17644 h 1.908608 1.908651 z"
         id="path3125" /></g><g
       id="layer1-83"
       transform="translate(606.75182,-260.14975)"><path
         style="display:inline;fill:#29577e;fill-opacity:1"
         d="m -309.0543,124.11064 c -6.80871,-1.29574 -10.54221,-6.24691 -11.40559,-15.12551 -0.33728,-3.46841 -0.33341,-37.092773 0.005,-40.318303 0.8797,-8.39383 4.23607,-13.0394 10.64816,-14.73823 2.21984,-0.58812 7.64986,-0.58504 9.90847,0.006 5.2125,1.36318 8.39098,4.78554 9.86674,10.62379 0.64457,2.54999 1.04857,7.76182 1.0517,13.56766 l 0.002,4.299484 h -5.66317 -5.66316 l -0.12022,-7.077614 c -0.13301,-7.83022 -0.26728,-8.6059 -1.70879,-9.87156 -0.79265,-0.69596 -1.07318,-0.77781 -2.66272,-0.77693 -2.31631,0.001 -3.25726,0.55012 -3.92911,2.29172 -0.4666,1.20954 -0.49346,2.41699 -0.49346,22.181252 0,20.378611 0.0133,20.928161 0.52917,21.943341 0.80869,1.5913 1.67529,2.09344 3.63152,2.10425 2.21261,0.0122 3.25215,-0.55333 3.99251,-2.1721 0.5242,-1.14617 0.57342,-1.76295 0.66365,-8.31559 l 0.0975,-7.077611 h 5.66316 5.66317 l -0.006,4.564061 c -0.0115,8.75651 -0.68111,13.44419 -2.43386,17.03898 -1.55412,3.18741 -4.12485,5.37676 -7.59522,6.46844 -2.27767,0.71649 -7.28932,0.90856 -10.04136,0.38484 z m 29.86603,-35.070891 V 54.379327 h 11.77396 11.77396 v 5.55625 5.55625 h -6.22123 -6.22123 l 0.0697,8.92969 0.0697,8.929692 6.15156,0.071 6.15157,0.071 v 5.55138 5.55137 h -6.21771 -6.21771 v 8.863541 8.86354 h 6.21771 6.21771 v 5.68854 5.68854 h -11.77396 -11.77396 z m 33.60208,0 V 54.379327 l 5.6224,0.005 5.62239,0.005 6.48092,18.67696 c 3.5645,10.272332 6.62069,18.991322 6.79153,19.375532 0.24153,0.5432 0.3154,-3.61183 0.33211,-18.682162 l 0.0215,-19.38072 h 5.55625 5.55625 v 34.665672 34.665681 l -5.58888,-0.0714 -5.58887,-0.0714 -6.65268,-19.09866 c -3.65897,-10.504271 -6.73991,-19.185911 -6.84654,-19.292541 -0.10663,-0.10663 -0.19387,8.51754 -0.19387,19.164811 v 19.35869 h -5.55625 -5.55625 z m 55.29793,5.55625 V 65.491827 h -4.63022 -4.63021 v -5.55625 -5.55625 h 14.81668 14.81667 v 5.55625 5.55625 h -4.63021 -4.63021 v 29.104172 29.104161 h -5.55625 -5.55625 z m 30.42708,-5.55625 V 54.379327 l 8.40052,0.002 c 8.95292,0.002 10.57551,0.14473 14.04612,1.23445 5.08735,1.59734 7.76861,5.11287 8.82438,11.57009 0.1698,1.03852 0.31589,4.83427 0.32686,8.49242 0.0167,5.569734 -0.0581,6.948944 -0.47344,8.731252 -0.90645,3.8897 -2.89434,7.23997 -5.20195,8.76708 -1.20572,0.7979 -1.29088,1.03275 -0.45634,1.25839 0.95323,0.25774 3.04158,1.92478 3.90587,3.11791 0.43789,0.60449 1.05264,1.88311 1.36612,2.841391 0.52542,1.6062 0.58404,2.50712 0.75033,11.5319 0.14928,8.10201 0.25346,9.96061 0.60433,10.78176 l 0.42395,0.99219 h -5.64916 -5.64915 l -0.33151,-0.8599 c -0.23392,-0.60677 -0.37783,-3.85847 -0.4889,-11.04634 l -0.1574,-10.18646 -0.66146,-1.32254 c -1.08021,-2.159791 -3.04237,-3.043091 -6.7599,-3.043091 h -1.70677 V 110.471 123.70016 h -5.55625 -5.55625 z m 17.59479,-3.96875 c 0.97693,-0.48846 1.49592,-0.97285 1.98438,-1.85208 0.65411,-1.177398 0.66146,-1.261188 0.66146,-7.540632 0,-6.99835 -0.0582,-7.29249 -1.71851,-8.68957 -1.03534,-0.87118 -2.20993,-1.1955 -5.09451,-1.40666 l -2.31511,-0.16947 v 10.25087 10.250882 l 2.57969,-0.0909 c 2.10409,-0.0742 2.82358,-0.21289 3.9026,-0.7524 z m 24.62877,38.166131 c 0.0579,-0.25466 2.07356,-15.52441 4.47927,-33.932801 2.4057,-18.408392 4.44024,-33.797212 4.52119,-34.197402 l 0.14719,-0.7276 h 7.72253 7.722517 l 4.45391,34.065112 c 2.44965,18.735801 4.51436,34.332981 4.58826,34.660401 l 0.13436,0.59532 h -5.66577 -5.66576 l -0.62661,-6.34999 -0.6266,-6.35 h -4.307657 -4.30766 l -0.1403,0.85989 c -0.13717,0.84071 -1.20659,11.12055 -1.20659,11.59841 0,0.13833 -2.42207,0.24169 -5.66378,0.24169 -5.25778,0 -5.65622,-0.0332 -5.5585,-0.46303 z m 20.138767,-24.341651 c -0.0808,-0.54571 -0.83896,-7.708 -1.68471,-15.91622 -1.002717,-9.731602 -1.606077,-14.656552 -1.734177,-14.155212 -0.10805,0.42285 -0.85563,7.07913 -1.66129,14.791742 -0.80567,7.7126 -1.5357,14.52893 -1.62229,15.1474 l -0.15744,1.12448 h 3.50344 3.503437 z m 23.36267,-9.85573 V 54.379327 h 5.68854 5.68855 v 28.971882 28.971871 h 6.2177 6.21771 v 5.68854 5.68854 h -11.90625 -11.90625 z"
         id="path1" /><path
         style="-inkscape-font-specification:'Manjari Bold';display:inline;fill:#333652;stroke-width:0.337877"
         d="m -312.08296,136.30134 q 0,-0.54739 0.40405,-0.93444 0.41798,-0.40053 0.98914,-0.40053 h 0.0147 l 13.91829,-0.0803 h 0.0293 q 0.5712,0 0.97528,0.40041 0.41794,0.3872 0.41794,0.93463 0,0.54735 -0.41794,0.94783 -0.40408,0.38721 -0.97528,0.38721 h -0.0147 l -5.54499,0.0257 -0.0697,15.32642 v 0.0147 q 0,0.53411 -0.41798,0.92131 -0.40396,0.38706 -0.97517,0.38706 -0.5713,0 -0.98918,-0.38706 -0.40409,-0.3872 -0.40409,-0.92131 v -0.0257 l 0.0693,-15.29976 -5.60076,0.0396 h -0.0147 q -0.57119,0 -0.98921,-0.38721 -0.40398,-0.40051 -0.40398,-0.94786 z m 27.53007,-1.60206 q 2.13157,0 3.9149,0.80105 1.79735,0.78768 3.12083,2.17615 1.32367,1.3751 2.04811,3.17748 0.72446,1.78887 0.72446,3.80484 0,2.01581 -0.72446,3.79155 -0.71053,1.76221 -2.02021,3.11072 -1.30958,1.34835 -3.10683,2.10934 -1.7834,0.76093 -3.94283,0.76093 -2.20127,0 -3.99858,-0.76093 -1.79724,-0.77431 -3.09295,-2.12271 -1.2818,-1.36177 -1.9784,-3.13752 -0.69664,-1.78884 -0.69664,-3.83151 0,-1.98916 0.72453,-3.76485 0.73842,-1.77566 2.04806,-3.15069 1.32356,-1.38846 3.09298,-2.17615 1.78331,-0.7877 3.88703,-0.7877 z m 0.0558,2.71022 q -2.06193,0 -3.65019,1.028 -1.57437,1.028 -2.48,2.72346 -0.89159,1.68214 -0.89159,3.68472 0,1.36191 0.54327,2.60342 0.54332,1.24157 1.50468,2.21618 0.96131,0.96115 2.21516,1.52182 1.2679,0.54746 2.70292,0.54746 1.43493,0 2.70291,-0.57403 1.28169,-0.57402 2.25693,-1.5487 0.98923,-0.97451 1.54651,-2.1895 0.55723,-1.22815 0.55723,-2.50987 0,-2.06936 -0.94725,-3.76489 -0.93357,-1.70878 -2.52183,-2.72342 -1.58826,-1.01465 -3.53875,-1.01465 z m 11.48005,-1.17491 q 0,-0.50735 0.39019,-0.90791 0.40404,-0.40042 0.93345,-0.40042 0.65484,0 1.04491,0.34708 0.40412,0.33386 0.41802,0.96123 l 0.0972,9.65244 q 0.0293,2.88375 1.21209,4.55253 1.18429,1.66888 3.92889,1.66888 2.03417,0 3.2601,-0.76107 1.22615,-0.76086 1.76942,-2.12276 0.54335,-1.3616 0.54335,-3.13731 l -0.0294,-9.86607 v -0.0147 q 0,-0.54739 0.40401,-0.92117 0.40401,-0.3872 0.97534,-0.3872 0.57117,0 0.98911,0.3872 0.41804,0.37378 0.41804,0.92117 v 0.0147 l 0.0293,9.86607 q 0,4.00515 -2.07595,6.34149 -2.0619,2.33636 -6.22768,2.33636 -2.68891,0 -4.44432,-1.13476 -1.75548,-1.14819 -2.63324,-3.13752 -0.87773,-2.00243 -0.90558,-4.56578 l -0.0972,-9.67919 z m 33.43747,16.8751 q 0,0.52073 -0.40404,0.90785 -0.3901,0.37386 -0.84991,0.37386 -0.39003,0 -0.68262,-0.26709 -0.2924,-0.25352 -0.40404,-0.38717 -1.26791,-0.85431 -2.20136,-1.93578 -0.91951,-1.09461 -1.57436,-2.37638 -0.57119,-1.14815 -1.17024,-1.78898 -0.58521,-0.64083 -1.42114,-0.90782 -0.83583,-0.26709 -2.17337,-0.28029 l -1.26779,-0.0147 0.0147,6.4616 v 0.0257 q 0,0.53395 -0.41799,0.93455 -0.40398,0.40053 -0.97529,0.40053 -0.57116,0 -0.9891,-0.4272 -0.40409,-0.42734 -0.40409,-1.01471 l -0.0415,-16.56802 q 0,-0.56074 0.40409,-0.93452 0.41795,-0.38724 0.9752,-0.40052 l 3.70604,-0.0147 h 0.32028 q 2.39636,0 4.27721,0.68086 1.88088,0.6675 2.96759,2.01593 1.08669,1.33513 1.08669,3.32434 0,1.28159 -0.55725,2.28291 -0.54335,1.00126 -1.43502,1.6955 -0.89171,0.69422 -1.92267,1.08146 0.47368,0.57409 0.9474,1.41509 0.80809,1.48191 1.57435,2.63009 0.76627,1.13476 2.02016,2.00262 0.25058,0.16033 0.41794,0.45383 0.18125,0.2803 0.18125,0.62751 z m -9.48793,-15.54005 h -2.68882 l 0.0293,6.38152 2.68887,-0.0257 q 2.56354,-0.0257 4.01246,-0.74763 1.46293,-0.72092 1.46293,-2.30962 0,-1.6288 -1.54647,-2.45656 -1.54652,-0.84111 -3.95684,-0.84111 z m 19.76982,-2.89703 q 1.60225,0 3.02328,0.52064 1.43516,0.52071 2.50785,1.44191 1.07283,0.92113 1.63005,2.13609 0.1251,0.26672 0.1251,0.54731 0,0.54735 -0.41791,0.94787 -0.40408,0.38716 -0.9753,0.38716 -0.37621,0 -0.75238,-0.22672 -0.37611,-0.23994 -0.52944,-0.57406 -0.52937,-1.14805 -1.76932,-1.82893 -1.22608,-0.68087 -2.84226,-0.68087 -0.79407,0 -1.68574,0.18712 -0.87776,0.18711 -1.65796,0.57402 -0.78024,0.37382 -1.26783,0.94798 -0.48765,0.57403 -0.48765,1.33508 0,0.61405 0.41798,1.06798 0.41798,0.44063 0.93353,0.69419 1.21206,0.5742 2.67489,0.80114 1.4769,0.22674 2.98155,0.44049 1.50473,0.21389 2.80033,0.74763 0.82199,0.33386 1.57432,0.92116 0.75236,0.58752 1.22616,1.42855 0.47356,0.84112 0.47356,1.97595 0,1.46844 -0.73839,2.57656 -0.73834,1.10813 -1.93647,1.84248 -1.19823,0.73412 -2.6054,1.10808 -1.39322,0.36027 -2.73072,0.36027 -1.81125,0 -3.39943,-0.54734 -1.58831,-0.56074 -2.77253,-1.57542 -1.18429,-1.02792 -1.81118,-2.40314 -0.1251,-0.26672 -0.1251,-0.53395 0,-0.54742 0.40413,-0.93452 0.41786,-0.40056 0.98911,-0.40056 0.39009,0 0.76623,0.24031 0.37619,0.22673 0.51556,0.57416 0.61299,1.34839 2.07581,2.13609 1.46286,0.77437 3.35769,0.77437 1.1843,0 2.38246,-0.33385 1.19818,-0.34708 2.00627,-1.05468 0.822,-0.72099 0.822,-1.82898 0,-0.70763 -0.50164,-1.16153 -0.48758,-0.46731 -1.07271,-0.7076 -1.32364,-0.54746 -2.82829,-0.7476 -1.50464,-0.21352 -2.99538,-0.44062 -1.49072,-0.24031 -2.7865,-0.86774 -1.10053,-0.53408 -2.00617,-1.54875 -0.89171,-1.02785 -0.89171,-2.60325 0,-1.38849 0.69663,-2.44319 0.7105,-1.06806 1.86694,-1.78898 1.17024,-0.73431 2.56355,-1.10809 1.39318,-0.37378 2.77243,-0.37378 z m 19.67238,19.39827 q -0.57119,0 -0.98918,-0.38709 -0.40404,-0.40048 -0.40404,-0.94795 l -0.0415,-16.56801 q -0.0147,-0.1196 -0.0147,-0.24032 0,-0.18709 0.0836,-0.36063 0.0972,-0.1739 0.2227,-0.36027 0.33423,-0.52068 0.96133,-0.52068 1.00313,0 1.37922,0.74777 l 7.4538,11.6549 6.89654,-11.6684 q 0.41786,-0.66754 1.12841,-0.66754 0.59918,0 1.04494,0.37385 0.44581,0.37382 0.44581,0.96127 v 16.70164 q 0,0.54726 -0.41792,0.94772 -0.40405,0.38717 -0.97531,0.38717 -0.57117,0 -0.98916,-0.38717 -0.40403,-0.40046 -0.40403,-0.94772 v -11.93546 l -5.47532,9.53224 q -0.15336,0.24031 -0.47376,0.4673 -0.32028,0.21352 -0.69659,0.21352 -0.80809,0 -1.23991,-0.64083 l -6.14418,-9.6258 0.0414,11.92206 v 0.0147 q 0,0.54738 -0.41791,0.94783 -0.40408,0.38717 -0.97528,0.38717 z m 27.68336,-18.624 q 0.15299,-0.33387 0.51546,-0.56067 0.37616,-0.24031 0.76623,-0.24031 0.37623,0 0.75237,0.24031 0.39018,0.2271 0.52952,0.56067 l 7.66261,17.03535 q 0.12511,0.26709 0.12511,0.54737 0,0.5474 -0.41791,0.94791 -0.40412,0.38715 -0.97528,0.38715 -0.39014,0 -0.76629,-0.24032 -0.37621,-0.24031 -0.52949,-0.57401 l -2.38241,-5.30022 -7.94131,-0.10639 -2.43813,5.42037 q -0.13942,0.33349 -0.51551,0.57404 -0.37621,0.25353 -0.76626,0.25353 -0.57124,0 -0.9892,-0.38722 -0.40408,-0.40055 -0.40408,-0.94793 0,-0.28031 0.12512,-0.54735 z m 1.28174,3.91175 -2.7446,6.12788 5.53104,0.0668 z m 26.56873,14.8458 -14.96322,0.0935 q -0.55722,0 -0.97524,-0.37376 -0.41788,-0.38715 -0.41788,-0.94791 0,-0.53397 0.32029,-0.8811 l 13.52823,-14.48532 -12.55298,0.0147 h -0.0147 q -0.59908,0 -1.00317,-0.40054 -0.39002,-0.40044 -0.39002,-0.94783 0,-0.54738 0.43185,-0.94794 0.43197,-0.41381 0.86379,-0.41381 l 15.68772,0.0257 q 0.55726,0 0.97528,0.3872 0.41791,0.38721 0.41791,0.93456 0,0.53399 -0.32028,0.88109 l -13.52819,14.48539 12.05135,-0.0147 h 0.0147 q 0.61301,0 1.00316,0.41383 0.3901,0.41389 0.3901,0.98794 0,0.48058 -0.27846,0.74767 -0.27846,0.25351 -0.61298,0.34706 -0.33459,0.10641 -0.52952,0.10641 -0.0558,0 -0.0693,-0.0147 z m 10.72786,-18.75755 q 0.153,-0.33387 0.51555,-0.56067 0.37612,-0.24031 0.76622,-0.24031 0.37616,0 0.75237,0.24031 0.39003,0.2271 0.52936,0.56067 l 7.66278,17.03535 q 0.12511,0.26709 0.12511,0.54737 0,0.5474 -0.41799,0.94791 -0.40398,0.38715 -0.97524,0.38715 -0.39007,0 -0.76626,-0.24032 -0.37609,-0.24031 -0.52946,-0.57401 l -2.3824,-5.30022 -7.94131,-0.10639 -2.43814,5.42037 q -0.13942,0.33349 -0.51557,0.57404 -0.37613,0.25353 -0.76627,0.25353 -0.5712,0 -0.98922,-0.38722 -0.40397,-0.40055 -0.40397,-0.94793 0,-0.28031 0.12511,-0.54735 z m 1.28177,3.91175 -2.74462,6.12788 5.53109,0.0668 z m 10.10084,-3.05729 q 0,-0.54739 0.40408,-0.93444 0.41796,-0.40053 0.98926,-0.40053 h 0.0147 l 13.91819,-0.0803 h 0.0294 q 0.57125,0 0.97526,0.40041 0.41804,0.3872 0.41804,0.93463 0,0.54735 -0.41804,0.94783 -0.40401,0.38721 -0.97526,0.38721 h -0.0147 l -5.54498,0.0257 -0.0697,15.32642 v 0.0147 q 0,0.53411 -0.41791,0.92131 -0.40409,0.38706 -0.97529,0.38706 -0.57122,0 -0.98921,-0.38706 -0.40401,-0.3872 -0.40401,-0.92131 v -0.0257 l 0.0697,-15.29976 -5.60077,0.0396 h -0.0147 q -0.57127,0 -0.98918,-0.38721 -0.40408,-0.40051 -0.40408,-0.94786 z m 19.8395,17.8765 q -0.57115,0 -0.98921,-0.38725 -0.4039,-0.40059 -0.4039,-0.93456 l -0.0415,-16.9419 v -0.0147 q 0,-0.53396 0.40397,-0.90785 0.41799,-0.38709 0.98918,-0.38709 0.5712,0 0.97528,0.38709 0.41792,0.37389 0.41792,0.90785 l 0.0418,15.60686 10.54672,-0.0257 h 0.0147 q 0.5712,0 0.97525,0.40048 0.41795,0.3871 0.41795,0.93452 0,0.54739 -0.41795,0.94791 -0.40405,0.38713 -0.97525,0.38713 h -0.0147 z m 28.3103,-27.18183 q 0.64094,0 1.01714,0.42719 0.37613,0.42723 0.37613,0.93463 0,0.52057 -0.39014,0.90777 l -4.51403,4.00512 q -0.55729,0.57417 -1.05885,0.57417 -0.34817,0 -0.65481,-0.29388 -0.30634,-0.2935 -0.30634,-0.61396 0,-0.46734 0.55725,-1.00133 l 3.95673,-4.51255 q 0.40405,-0.4272 1.01703,-0.4272 z m -6.14407,8.45087 q 0.15299,-0.33387 0.5155,-0.56067 0.37617,-0.24031 0.7662,-0.24031 0.3762,0 0.75236,0.24031 0.39014,0.2271 0.52948,0.56067 l 7.6627,17.03535 q 0.12474,0.26709 0.12474,0.54737 0,0.5474 -0.41795,0.94791 -0.40405,0.38715 -0.97532,0.38715 -0.38999,0 -0.76619,-0.24032 -0.37616,-0.24031 -0.52944,-0.57401 l -2.38245,-5.30022 -7.94135,-0.10639 -2.4381,5.42037 q -0.13941,0.33349 -0.51554,0.57404 -0.37616,0.25353 -0.76623,0.25353 -0.57123,0 -0.98922,-0.38722 -0.40401,-0.40055 -0.40401,-0.94793 0,-0.28031 0.12511,-0.54735 z m 1.2817,3.91175 -2.7446,6.12788 5.53113,0.0668 z m 10.797504,-3.12404 q 0,-0.56076 0.417986,-0.92111 0.431892,-0.37385 1.017066,-0.37385 0.654845,0 1.072795,0.50725 l 10.518824,13.6844 v -12.85661 q 0,-0.53403 0.404008,-0.90777 0.417986,-0.38732 0.989219,-0.38732 0.571196,0 0.975241,0.38732 0.417987,0.37374 0.417987,0.90777 l -0.01468,16.74162 q 0,0.56071 -0.431892,0.93448 -0.417986,0.36027 -1.003123,0.36027 -0.654808,0 -1.072758,-0.53395 l -10.504884,-13.67091 v 12.89665 q 0,0.534 -0.417986,0.92117 -0.404009,0.37369 -0.975278,0.37369 -0.571196,0 -0.989183,-0.37369 -0.404045,-0.38717 -0.404045,-0.92117 z"
         id="text5"
         aria-label="TOURS MAZATLÃN" /></g></g></svg>
