<?xml version="1.0" encoding="UTF-8" standalone="no"?>
<!-- Created with Inkscape (http://www.inkscape.org/) -->

<svg
   width="52.603798mm"
   height="52.669098mm"
   viewBox="0 0 52.603798 52.669098"
   version="1.1"
   id="svg1"
   xml:space="preserve"
   xmlns="http://www.w3.org/2000/svg"
   xmlns:svg="http://www.w3.org/2000/svg"><defs
     id="defs1" /><g
     id="layer1"
     transform="translate(-80.237594,-134.44276)"><g
       id="layer1-0"
       transform="matrix(0.2580138,0,0,0.25624225,143.38994,125.94258)"><path
         style="color:#000000;font-style:normal;font-variant:normal;font-weight:normal;font-stretch:normal;font-size:medium;line-height:normal;font-family:sans-serif;font-variant-ligatures:normal;font-variant-position:normal;font-variant-caps:normal;font-variant-numeric:normal;font-variant-alternates:normal;font-variant-east-asian:normal;font-feature-settings:normal;font-variation-settings:normal;text-indent:0;text-align:start;text-decoration-line:none;text-decoration-style:solid;text-decoration-color:#000000;letter-spacing:normal;word-spacing:normal;text-transform:none;writing-mode:lr-tb;direction:ltr;text-orientation:mixed;dominant-baseline:auto;baseline-shift:baseline;text-anchor:start;white-space:normal;shape-padding:0;shape-margin:0;inline-size:0;clip-rule:nonzero;display:inline;overflow:visible;visibility:visible;isolation:auto;mix-blend-mode:normal;color-interpolation:sRGB;color-interpolation-filters:linearRGB;solid-color:#000000;solid-opacity:1;vector-effect:none;fill:#fad02c;fill-opacity:1;fill-rule:nonzero;stroke:none;stroke-width:0.994231;stroke-linecap:butt;stroke-linejoin:miter;stroke-miterlimit:4;stroke-dasharray:none;stroke-dashoffset:0;stroke-opacity:1;-inkscape-stroke:none;color-rendering:auto;image-rendering:auto;shape-rendering:auto;text-rendering:auto;enable-background:accumulate;stop-color:#000000;stop-opacity:1"
         d="m -125.03582,153.12996 0.0137,-0.17 0.54811,-1.13334 0.54811,-1.13333 -0.11128,0.90667 -0.11128,0.90666 -0.002,0.39667 -0.002,0.39667 h -0.44812 -0.44812 z m -26.56473,-3.45297 -4.70524,-1.08718 -2.80073,-0.71557 -2.80073,-0.71557 -5.09735,-1.38053 -5.09734,-1.38054 0.012,-0.13882 0.0119,-0.13882 7.21399,-4.67795 7.21399,-4.67794 9.29844,-6.06651 9.29845,-6.0665 8.81509,-5.7623 8.81509,-5.76231 0.0624,0.0734 0.0624,0.0734 -0.40462,5.86296 -0.40463,5.86295 -0.43237,0.48371 -0.43237,0.48371 -8.24277,9.63334 -8.24277,9.63333 -3.23493,3.79667 -3.23493,3.79666 -0.48383,-0.0212 -0.48383,-0.0212 z m 59.619306,-6.18037 -0.112678,-0.73666 -0.795946,-12.24 -0.795946,-12.24 0.002,-0.34347 0.002,-0.34346 1.146555,-0.41196 1.146565,-0.41197 0.165958,0.18876 0.165959,0.18876 4.644433,10.28562 4.644424,10.28563 -0.299465,0.26901 -0.299464,0.26902 -2.01653,1.21781 -2.016529,1.21781 -2.596233,1.77088 -2.596232,1.77089 h -0.13833 -0.13834 z m -152.648886,-9.26738 0.13336,-5.97595 0.36181,-3.17333 0.36181,-3.17334 0.54031,-3.23436 0.54031,-3.23435 0.88265,-3.67898 0.88265,-3.67897 0.82855,-2.60667 0.82855,-2.60667 1.00606,-2.77666 1.00607,-2.77667 h 57.5606 57.56059 v 0.209275 0.209276 l 0.53687,0.645465 0.53688,0.645465 0.19131,1.355259 0.19132,1.35526 -0.0665,0.79333 -0.0665,0.79334 -8.11162,2.41376 -8.11162,2.41376 -30.24795,8.99191 -30.24794,8.99192 -14.11571,4.20044 -14.1157,4.20045 -9.07439,2.70553 -9.07438,2.70552 -0.42535,0.13097 -0.42536,0.13097 z m 170.105825,-7.48017 -4.481184,-5.24143 -3.51918,-4.08883 -3.51918,-4.08883 1.342287,-1.45161 1.342287,-1.4516 0.570371,-0.87192 0.570372,-0.87192 2.950875,1.921 2.950874,1.92101 11.713606,7.63751 11.713609,7.63751 -0.622693,0.0664 -0.622691,0.0664 -2.576677,0.44912 -2.576676,0.44911 -2.800735,0.78215 -2.800742,0.78215 -2.340627,0.799 -2.340627,0.79901 -0.236043,-0.001 -0.236053,-0.001 z m 12.576886,-18.33237 -17.446993,-5.18798 -0.09885,-0.1 -0.09885,-0.1 0.349295,-1.86279 0.349304,-1.862782 v -1.1099 -1.109901 l 14.920986,0.05827 16.879803,-0.32261 0.768913,1.926666 0.768912,1.926667 0.878879,2.73103 0.87888,2.73102 0.810577,3.16231 1.517927,5.33877 0.11233,0.39666 0.11233,0.39667 -0.295172,-0.0143 -0.295173,-0.0143 z m -63.662301,-18.948246 -4.9293,-1.470292 -9.85859,-2.918954 -9.85859,-2.918954 -23.41414,-6.909476 -23.41416,-6.909476 -8.80176,-2.58578 -8.80178,-2.58578 2.19204,-2.14693 2.19204,-2.146931 2.03045,-1.705369 2.03047,-1.705369 1.77854,-1.366126 1.77853,-1.366126 3.02479,-2.044381 3.0248,-2.044381 2.80074,-1.653147 2.80073,-1.653147 3.13382,-1.540583 3.1338,-1.540584 0.59468,0.384978 0.59468,0.384977 31.00063,20.148576 31.00064,20.148577 0.33609,0.704757 0.33608,0.704757 0.84022,0.07035 0.84023,0.07035 3e-5,1.62965 5e-5,1.629651 -0.50217,1.416667 -0.50218,1.416666 -0.22605,-0.01394 -0.22607,-0.01394 z m 45.61459,0.66711 -0.232801,-0.868941 -0.908812,-1.794271 -0.908812,-1.79427 0.175675,-0.161047 0.175685,-0.161046 8.850331,-5.76521 8.850322,-5.765209 0.591288,-0.392387 0.591288,-0.392386 1.504632,2.073826 1.504633,2.073827 1.993154,3.072412 1.993154,3.072412 v 0.253635 0.253636 l -11.707077,3.486689 -11.707071,3.486689 -0.266399,0.09529 -0.2664,0.09529 z m -7.636618,-10.310019 -1.232327,-0.919615 -1.181409,-0.592736 -1.18141,-0.592736 0.100975,-0.233584 0.100975,-0.233584 5.01159,-11.106667 5.01159,-11.106666 h 0.24916 0.24916 l 2.337543,1.965747 2.337534,1.965748 2.27597,2.227586 2.27597,2.227585 -7.382149,8.609523 -7.382159,8.609523 -0.179343,0.04975 -0.179353,0.04975 z m -46.971912,-23.151348 -19.52032,-22.71424 0.70156,-0.156798 0.70157,-0.156797 5.08709,-0.236975 5.08708,-0.236975 4.09933,0.230153 4.09933,0.230153 2.8962,0.335758 2.89622,0.335759 0.0518,0.05453 0.0518,0.05453 9.43128,20.799211 9.43128,20.799211 v 0.100791 0.10079 l -1.5124,0.888112 -1.5124,0.888111 -1.23451,0.69946 -1.23451,0.699461 z m 31.50697,18.992426 -0.005,-0.226666 -2.55526,-17.904507 -2.55527,-17.904507 0.0567,-0.05742 0.0567,-0.05742 2.44736,0.993456 2.44737,0.993455 2.80074,1.296131 2.800732,1.29613 2.2966,1.260949 2.296609,1.260949 v 0.455198 0.455198 l -1.905946,13.729525 -1.905947,13.729525 -0.100797,0.453334 -0.100787,0.453333 h -3.034594 -3.03458 z"
         id="path3139-7" /><path
         style="fill:#29577e;fill-opacity:1"
         d="m -151.38204,238.56459 c -17.63701,-1.508 -32.84107,-6.59196 -47.57413,-15.90792 -1.5441,-0.97636 -3.06197,-1.9754 -3.37305,-2.2201 l -0.56559,-0.44489 1.33305,-0.59354 c 1.85496,-0.82593 6.09287,-2.19742 8.92638,-2.88879 6.61114,-1.61311 14.28078,-1.69457 20.96667,-0.22268 2.75779,0.60713 6.81905,1.8463 13.71333,4.18421 29.06164,9.85508 30.72043,10.38727 39.21333,12.58085 2.68033,0.69229 4.90305,1.2879 4.93937,1.32358 0.10579,0.10394 -4.82561,1.42726 -7.54604,2.02495 -3.29163,0.72318 -7.45233,1.41201 -11.22,1.85753 -3.59778,0.42544 -15.21085,0.61482 -18.81332,0.3068 z m 46.23999,-9.42493 c -7.90225,-2.15118 -16.55404,-4.93032 -40.46,-12.99663 -11.97656,-4.04111 -20.38041,-6.37236 -25.87658,-7.17822 -3.6404,-0.53376 -10.44608,-0.53402 -13.56341,-5e-4 -6.79578,1.16305 -12.73924,3.36974 -19.08407,7.08552 -1.14624,0.67128 -2.1887,1.22051 -2.31658,1.22051 -0.41408,0 -5.71961,-4.54198 -8.7217,-7.4665 -3.24145,-3.1577 -6.774,-7.10056 -9.57435,-10.68641 -1.93366,-2.47606 -5.97664,-8.31424 -5.97664,-8.63045 0,-0.45091 6.40595,-3.88478 10.25726,-5.49833 16.1242,-6.75544 32.167,-8.63485 50.4935,-5.91531 1.30675,0.19391 5.12991,0.90899 8.49591,1.58905 14.18151,2.86524 23.7691,3.93133 37.10268,4.12561 11.46064,0.167 18.95539,-0.27116 27.950654,-1.63404 18.9523,-2.87147 36.05303,-9.31068 48.87186,-18.40249 1.37086,-0.97229 2.68726,-1.90525 2.92533,-2.07326 0.42059,-0.29681 0.41979,-0.25827 -0.0283,1.36 -3.13882,11.3362 -8.92731,23.1044 -16.39264,33.32679 -1.13968,1.56058 -1.33608,1.72588 -2.21995,1.86838 -11.35371,1.83051 -19.32089,2.5586 -30.88966,2.82288 -7.262294,0.1659 -22.539134,-0.0357 -24.026664,-0.31702 -0.46837,-0.0886 -0.57418,-0.0635 -0.34,0.0807 0.56721,0.34929 6.95064,1.79517 10.08666,2.28468 13.149054,2.05249 25.398704,2.35113 37.617864,0.91708 1.98982,-0.23352 3.64663,-0.39581 3.6818,-0.36064 0.14145,0.14145 -4.29413,4.68415 -6.84632,7.01167 -5.27679,4.81225 -10.75055,8.92901 -16.43334,12.35933 -3.63102,2.19182 -10.910404,5.93951 -11.470034,5.90521 -0.23648,-0.0145 -1.70497,-0.37344 -3.2633,-0.79766 z m -127.00533,-40.9321 c -3.20277,-5.19976 -6.48316,-12.37531 -8.77435,-19.19313 -1.30167,-3.87333 -2.97509,-10.03637 -3.28344,-12.09256 l -0.15167,-1.01141 1.7774,-1.24376 c 12.95002,-9.06197 29.97885,-13.92153 45.26095,-12.91623 4.18163,0.27508 9.17487,1.02645 12.04978,1.81322 0.87267,0.23882 5.56467,1.52729 10.42667,2.86327 15.32354,4.21061 23.29141,6.13252 30.48666,7.35361 6.80986,1.1557 12.68718,1.78527 17.34,1.85746 l 2.49333,0.0387 0.16195,-2.01319 c 0.14551,-1.80875 1.80711,-26.15042 2.11019,-30.91319 0.0674,-1.05967 0.2718,-4.06867 0.45415,-6.68667 0.18235,-2.618 0.48434,-7.106 0.67108,-9.97333 0.18673,-2.86733 0.36283,-5.4767 0.39133,-5.79859 0.0348,-0.392903 -0.2135,-0.895213 -0.75539,-1.528293 -0.82254,-0.96095 -1.33331,-2.22362 -1.33331,-3.29608 0,-0.59187 0.0147,-0.59704 1.7,-0.59704 h 1.7 v -4.986662 -4.986667 h -0.748 c -0.4114,0 -0.8704,-0.1224 -1.02,-0.272 -0.39552,-0.395519 -0.33303,-1.191524 0.12467,-1.588098 0.43864,-0.380064 11.37972,-6.780779 12.32247,-7.208857 0.51108,-0.232065 0.7135,-0.193293 1.47334,0.282206 0.48447,0.303177 3.40535,2.008799 6.49085,3.790272 5.252764,3.032779 5.610004,3.280056 5.610004,3.883117 0,0.715146 -0.52163,1.11336 -1.45843,1.11336 h -0.58157 v 4.986667 4.986662 h 1.82361 1.8236 l -0.14635,0.85 c -0.18751,1.08903 -0.8862,2.49188 -1.63691,3.28667 -0.57877,0.61275 -0.58034,0.62333 -0.093,0.62333 0.27266,0 0.49808,0.0765 0.50093,0.17 0.003,0.0935 0.25339,3.740003 0.55675,8.103333 0.7343,10.56198 2.34128,34.10324 2.52206,36.94667 0.0793,1.24667 0.16786,2.29424 0.19688,2.32794 0.029,0.0337 2.06703,-1.26329 4.52891,-2.8822 11.57311,-7.61036 21.04713,-11.6416 31.84435,-13.54992 3.15115,-0.55694 4.07269,-0.62349 8.67126,-0.62616 3.92666,-0.002 5.21517,0.0669 5.44,0.29207 0.451,0.45171 0.361,11.3983 -0.13083,15.9116 -0.3479,3.19252 -1.35067,9.75849 -1.63316,10.69358 -0.2741,0.90736 -9.39618,6.32176 -15.05474,8.93574 -22.7446,10.50687 -52.792364,14.30703 -84.831424,10.72868 -7.35033,-0.82094 -9.41489,-1.12119 -17.16858,-2.49684 -10.26554,-1.82129 -16.89057,-2.36228 -24.61048,-2.00965 -7.3965,0.33785 -11.95503,0.97023 -18.11618,2.51318 -9.43441,2.36267 -19.94549,7.25085 -27.09984,12.60279 -2.04328,1.52851 -1.96699,1.49845 -2.3255,0.91641 z m 117.712,-98.323885 v -4.986667 h -1.58667 -1.58667 v 4.986667 4.986662 h 1.58667 1.58667 z m 5.21333,0 v -4.986667 h -1.7 -1.7 v 4.986667 4.986662 h 1.7 1.7 z m 4.98667,0 v -4.986667 h -1.58667 -1.58667 v 4.986667 4.986662 h 1.58667 1.58667 z m 5.213334,-0.0095 v -4.996201 l -1.756674,0.0662 -1.75666,0.0662 -0.0611,4.93 -0.0611,4.930003 h 1.81776 1.817754 z"
         id="path3125" /></g></g></svg>
